<svg width="37" height="36" viewBox="0 0 37 36" xmlns="http://www.w3.org/2000/svg"><title>Slice 1</title><path d="M25.435 9.391c.648 0 1.174.526 1.174 1.174v14.87c0 .648-.526 1.174-1.174 1.174h-14.87a1.174 1.174 0 0 1-1.174-1.174v-14.87c0-.648.526-1.174 1.174-1.174h14.87zm4.304 0a3.132 3.132 0 0 0-3.13-3.13H9.39a3.132 3.132 0 0 0-3.13 3.13V26.61a3.132 3.132 0 0 0 3.13 3.13H26.61a3.132 3.132 0 0 0 3.13-3.13V9.39zM12.522 31.304V36h-1.565v-4.696h1.565zm6.26 0V36h-1.565v-4.696h1.566zm3.131 0V36h-1.565v-4.696h1.565zm-6.26 0V36h-1.566v-4.696h1.565zm9.39 0V36h-1.565v-4.696h1.565zM12.522 0v4.696h-1.565V0h1.565zm6.26 0v4.696h-1.565V0h1.566zm3.131 0v4.696h-1.565V0h1.565zm-6.26 0v4.696h-1.566V0h1.565zm9.39 0v4.696h-1.565V0h1.565zm6.261 23.478H36v1.565h-4.696v-1.565zm0-6.26H36v1.565h-4.696v-1.566zm0-3.131H36v1.565h-4.696v-1.565zm0 6.26H36v1.566h-4.696v-1.565zm0-9.39H36v1.565h-4.696v-1.565zM0 23.478h4.696v1.565H0v-1.565zm0-6.26h4.696v1.565H0v-1.566zm0-3.131h4.696v1.565H0v-1.565zm0 6.26h4.696v1.566H0v-1.565zm0-9.39h4.696v1.565H0v-1.565z" fill="#607D8B" fill-rule="evenodd"/></svg>