<svg width="24" height="24" viewBox="0 0 24 24" xmlns="http://www.w3.org/2000/svg"><title>Slice 1</title><g fill="none" fill-rule="evenodd"><rect fill="#607D8B" width="24" height="24" rx="4"/><g fill="#FFF"><path d="M12 10.95a.91.91 0 0 1-.907-.912V5.913A.91.91 0 0 1 12 5c.5 0 .907.409.907.913v4.125a.91.91 0 0 1-.907.913z"/><path d="M12 19c-3.555 0-6.447-2.911-6.447-6.49a6.513 6.513 0 0 1 2.75-5.317.903.903 0 0 1 1.263.223.917.917 0 0 1-.222 1.272 4.682 4.682 0 0 0-1.977 3.822c0 2.572 2.079 4.664 4.633 4.664 2.555 0 4.633-2.092 4.633-4.664 0-1.548-.76-2.991-2.035-3.862a.917.917 0 0 1-.24-1.268.903.903 0 0 1 1.259-.243 6.5 6.5 0 0 1 2.83 5.373C18.447 16.09 15.555 19 12 19z"/></g></g></svg>